<svg version="1.1" xmlns="http://www.w3.org/2000/svg" width="16" height="16" viewBox="0 0 768 768">
<path fill="#9ca2a7" d="M655.5 352.5q33 0 57 23.25t24 56.25-24 56.25-57 23.25h-48v129q0 25.5-18.75 44.25t-44.25 18.75h-121.5v-48q0-36-25.5-60.75t-61.5-24.75-61.5 24.75-25.5 60.75v48h-121.5q-25.5 0-44.25-18.75t-18.75-44.25v-121.5h48q36 0 60.75-25.5t24.75-61.5-24.75-61.5-60.75-25.5h-48v-121.5q0-25.5 18.75-44.25t44.25-18.75h129v-48q0-33 23.25-57t56.25-24 56.25 24 23.25 57v48h129q25.5 0 44.25 18.75t18.75 44.25v129h48z"></path>
</svg>
